<svg width="62" height="21" viewBox="0 0 62 21" fill="none" xmlns="http://www.w3.org/2000/svg">
<path d="M0.49 21V-1.43051e-06H4.51L16.9 15.12H14.95V-1.43051e-06H19.75V21H15.76L3.34 5.88H5.29V21H0.49ZM24.7185 21V-1.43051e-06H33.8085C35.6885 -1.43051e-06 37.3085 0.309999 38.6685 0.929999C40.0285 1.53 41.0785 2.4 41.8185 3.54C42.5585 4.68 42.9285 6.04 42.9285 7.62C42.9285 9.18 42.5585 10.53 41.8185 11.67C41.0785 12.81 40.0285 13.69 38.6685 14.31C37.3085 14.91 35.6885 15.21 33.8085 15.21H27.4185L29.5785 13.02V21H24.7185ZM29.5785 13.56L27.4185 11.25H33.5385C35.0385 11.25 36.1585 10.93 36.8985 10.29C37.6385 9.65 38.0085 8.76 38.0085 7.62C38.0085 6.46 37.6385 5.56 36.8985 4.92C36.1585 4.28 35.0385 3.96 33.5385 3.96H27.4185L29.5785 1.65V13.56ZM50.1916 21V3.96H43.4716V-1.43051e-06H61.7716V3.96H55.0516V21H50.1916Z" fill="url(#paint0_linear_15_355)"/>
<defs>
<linearGradient id="paint0_linear_15_355" x1="-8.13419" y1="-23.8571" x2="66.2574" y2="-18.6889" gradientUnits="userSpaceOnUse">
<stop stop-color="#00B292"/>
<stop offset="0.290505" stop-color="#2DFFD9"/>
<stop offset="0.635914" stop-color="#54FFE0"/>
<stop offset="0.978018" stop-color="#03776F"/>
</linearGradient>
</defs>
</svg>
